<svg xmlns="http://www.w3.org/2000/svg" width="19.08" height="12.266" viewBox="0 0 19.08 12.266">
  <g id="eye-open" transform="translate(0 -91.365)">
    <path id="Path_9" data-name="Path 9" d="M18.867,96.763a11.372,11.372,0,0,0-4.009-3.918,10.3,10.3,0,0,0-10.637,0A11.369,11.369,0,0,0,.213,96.763a1.374,1.374,0,0,0,0,1.469,11.366,11.366,0,0,0,4.009,3.918,10.313,10.313,0,0,0,10.637.005,11.3,11.3,0,0,0,4.009-3.924,1.374,1.374,0,0,0,0-1.469ZM7.256,93.851A3.115,3.115,0,0,1,9.54,92.9a.511.511,0,1,1,0,1.022,2.218,2.218,0,0,0-2.215,2.215.511.511,0,1,1-1.022,0A3.116,3.116,0,0,1,7.256,93.851Zm6.91,7.123a8.919,8.919,0,0,1-9.253,0A10.99,10.99,0,0,1,1.363,97.5,10.465,10.465,0,0,1,5.42,93.739a4.653,4.653,0,0,0-.65,2.4,4.594,4.594,0,0,0,1.4,3.37,4.593,4.593,0,0,0,3.37,1.4,4.6,4.6,0,0,0,3.37-1.4,4.593,4.593,0,0,0,1.4-3.37,4.652,4.652,0,0,0-.65-2.4A10.466,10.466,0,0,1,17.717,97.5,10.987,10.987,0,0,1,14.166,100.975Z" transform="translate(0)" fill="#757777"/>
  </g>
</svg>
