<svg xmlns="http://www.w3.org/2000/svg" width="145.292" height="36.152" viewBox="0 0 145.292 36.152">
  <g id="logo" transform="translate(-3293.966 -1152.496)">
    <g id="Group_1" data-name="Group 1" transform="translate(3293.966 1152.496)">
      <path id="Path_2" data-name="Path 2" d="M3553.624,1154.775v19.581h-4.549V1152.5Z" transform="translate(-3536.05 -1152.496)" fill="#94b62d"/>
      <path id="Path_3" data-name="Path 3" d="M3549.075,1475v-7.359l18.619-5.205v5.62Z" transform="translate(-3536.05 -1446.613)" fill="#94b62d"/>
      <path id="Path_4" data-name="Path 4" d="M3691.334,1223.745V1239.8h-4.549v-18.338Z" transform="translate(-3666.729 -1217.945)" fill="#94b62d"/>
      <path id="Path_5" data-name="Path 5" d="M3829.044,1292.715v11.441h-4.549v-13.719Z" transform="translate(-3797.408 -1283.394)" fill="#94b62d"/>
      <ellipse id="Ellipse_3" data-name="Ellipse 3" cx="3.429" cy="2.31" rx="3.429" ry="2.31" transform="matrix(0.433, -0.901, 0.901, 0.433, 13.901, 34.15)" fill="#94b62d"/>
      <ellipse id="Ellipse_4" data-name="Ellipse 4" cx="2.433" cy="1.639" rx="2.433" ry="1.639" transform="matrix(0.433, -0.901, 0.901, 0.433, 25.623, 28.68)" fill="#94b62d"/>
      <path id="Path_6" data-name="Path 6" d="M3396.534,1553.946v1.269l-5.9,2.386Z" transform="translate(-3385.703 -1533.45)" fill="#94b62d"/>
      <path id="Path_7" data-name="Path 7" d="M3304.8,1615.548v1.616l-10.831,4.569Z" transform="translate(-3293.966 -1591.907)" fill="#94b62d"/>
      <path id="Path_8" data-name="Path 8" d="M3405.708,1691.555v1.493l-5.4,2.047Z" transform="translate(-3394.877 -1664.033)" fill="#94b62d"/>
    </g>
    <text id="EverestWings" transform="translate(3332.258 1172.33)" fill="#fff" font-size="19" font-family="Run-Medium, Run" font-weight="500" letter-spacing="-0.02em"><tspan x="0" y="0">EverestWings</tspan></text>
  </g>
</svg>
