<svg xmlns="http://www.w3.org/2000/svg" width="17.617" height="21.972" viewBox="0 0 17.617 21.972">
  <path id="Path_1" data-name="Path 1" d="M1209.117,1207.634a3.01,3.01,0,0,0-.035-.329l-1.64-11.483a.853.853,0,0,0-.841-.73h-2.3v-1.6a3.995,3.995,0,0,0-7.99,0v1.6h-2.3a.855.855,0,0,0-.84.73l-1.633,11.486a3.65,3.65,0,0,0,3.094,4.125,3.853,3.853,0,0,0,.515.036h10.332a3.645,3.645,0,0,0,3.631-3.337Zm-11.1-14.166a2.3,2.3,0,0,1,4.593-.248c0,.084,0,.167,0,.275v1.6h-4.592v-1.627Zm-2.868,16.307a1.95,1.95,0,0,1-1.947-1.945,1.982,1.982,0,0,1,.02-.276l1.039-7.264,12.1-.029,1.038,7.3a1.931,1.931,0,0,1-.456,1.548l-.038.045a1.946,1.946,0,0,1-1.43.626Zm-.646-11.186.255-1.794h11.109l.253,1.765Z" transform="translate(-1191.5 -1189.497)" fill="#4d4d4d"/>
</svg>
